#N canvas 0 23 1280 755 12;
#X declare -path cyclone;
#X declare -path mrpeach;
#X obj 286 679 netsend -u -b;
#X obj 286 537 list trim;
#X obj 401 596 loadbang;
#X text 565 623 connect to ip adres and port;
#X obj 286 513 list prepend send;
#X msg 399 651 disconnect;
#X obj 286 473 oscformat /servo;
#X obj 576 149 hsl 128 15 0 180 0 0 empty empty empty -2 -8 0 10 -262144
-1 -1 0 1;
#X obj 573 242 list prepend 1;
#X obj 576 173 hsl 128 15 0 180 0 0 empty empty empty -2 -8 0 10 -262144
-1 -1 0 1;
#X obj 576 195 hsl 128 15 0 180 0 0 empty empty empty -2 -8 0 10 -262144
-1 -1 0 1;
#X obj 573 287 list prepend 7;
#X obj 573 263 list prepend 4;
#X text 407 474 osc msg:'/servo servo_id \, angle';
#X floatatom 362 144 5 0 0 0 - - -;
#X floatatom 404 146 5 0 0 0 - - -;
#X floatatom 446 146 5 0 0 0 - - -;
#X obj 290 145 bng 15 250 50 0 empty empty empty 17 7 0 10 -262144
-1 -1;
#X text 360 123 angle;
#X text 405 124 time;
#X text 445 126 timegrain;
#X text 273 123 start;
#X obj 326 122 vradio 15 1 0 3 empty empty empty 0 -8 0 10 -262144
-1 -1 1;
#X text 304 102 servo ID;
#X msg 27 49 \; pd dsp \$1;
#X obj 27 24 tgl 15 0 empty empty empty 17 7 0 10 -262144 -1 -1 0 1
;
#X obj 13 95 declare -path cyclone;
#X floatatom 841 189 5 0 0 0 - - -;
#X floatatom 898 177 5 0 0 0 - - -;
#X floatatom 955 195 5 0 0 0 - - -;
#X obj 1146 332 metro 25;
#X text 1179 282 time grain;
#X obj 1146 277 tgl 15 0 empty empty empty 17 7 0 10 -262144 -1 -1
0 1;
#X floatatom 1199 306 5 0 0 0 - - -;
#X text 836 166 freq;
#X text 890 152 min angle;
#X text 941 173 max angle;
#X obj 286 437 r OSC_data;
#X obj 546 313 s OSC_data;
#X obj 290 199 s OSC_data;
#X obj 290 175 servo_line 7, f 21;
#X text 305 66 - control with line;
#X text 579 120 - manual control;
#X text 821 118 - control with sine oscillator;
#X obj 1013 199 tgl 15 0 empty empty empty 17 7 0 10 -262144 -1 -1
0 1;
#X text 1143 253 clock on/off;
#X text 1036 196 on/off;
#X msg 841 250 servo \$1 \$2 \$3 \$4;
#X obj 841 317 s OSC_data;
#X obj 841 224 pak f f f f, f 25;
#X obj 841 293 servo_osc~ 1;
#X msg 1146 361 clock bang;
#X floatatom 838 382 5 0 0 0 - - -;
#X floatatom 895 370 5 0 0 0 - - -;
#X floatatom 952 388 5 0 0 0 - - -;
#X text 833 359 freq;
#X text 887 345 min angle;
#X text 938 366 max angle;
#X obj 1010 392 tgl 15 0 empty empty empty 17 7 0 10 -262144 -1 -1
0 1;
#X text 1033 389 on/off;
#X msg 838 443 servo \$1 \$2 \$3 \$4;
#X obj 838 510 s OSC_data;
#X obj 838 417 pak f f f f, f 25;
#X floatatom 835 577 5 0 0 0 - - -;
#X floatatom 892 565 5 0 0 0 - - -;
#X floatatom 949 583 5 0 0 0 - - -;
#X text 830 554 freq;
#X text 884 540 min angle;
#X text 935 561 max angle;
#X obj 1007 587 tgl 15 0 empty empty empty 17 7 0 10 -262144 -1 -1
0 1;
#X text 1030 584 on/off;
#X msg 835 638 servo \$1 \$2 \$3 \$4;
#X obj 835 705 s OSC_data;
#X obj 835 612 pak f f f f, f 25;
#X obj 838 486 servo_osc~ 4;
#X obj 835 681 servo_osc~ 7;
#X obj 44 335 pipe 5000;
#X obj 47 283 hsl 128 15 0 180 0 0 empty empty empty -2 -8 0 10 -262144
-1 -1 0 1;
#X obj 180 338 tgl 15 0 empty empty empty 17 7 0 10 -262144 -1 -1 1
1;
#X msg 98 303 clear;
#X obj 47 401 hsl 128 15 0 180 0 0 empty empty empty -2 -8 0 10 -262144
-1 -1 0 1;
#X obj 109 363 spigot;
#X obj 180 289 loadbang;
#X msg 180 313 1;
#X text 22 256 - a simple data looper (looptime is 5s);
#X text 7 170 cyclone library required;
#X obj 227 488 print;
#X obj 227 462 spigot;
#X obj 266 438 tgl 15 0 empty empty empty 17 7 0 10 -262144 -1 -1 0
1;
#X msg 401 624 connect localhost 5000;
#N canvas 0 23 1280 755 receiveOSC 1;
#X obj 550 116 netreceive -u -b;
#X obj 550 142 mrpeach/unpackOSC;
#X obj 550 166 mrpeach/routeOSC /accel;
#X obj 550 63 loadbang;
#X msg 550 90 listen 8000;
#X obj 1000 274 i;
#X obj 1040 264 + 1;
#X obj 1040 290 % 100;
#X obj 550 271 unpack f f f f, f 50;
#X obj 550 327 tabwrite accel1;
#X obj 550 190 t l b;
#X obj 1072 239 r graphsize;
#X floatatom 1072 263 5 0 0 0 - - -;
#X obj 665 329 tabwrite accel2;
#X obj 781 329 tabwrite accel3;
#X obj 897 329 tabwrite accel4;
#N canvas 0 22 450 278 (subpatch) 0;
#X array accel2 100 float 0;
#X coords 0 1 99 0 200 140 1 0 0;
#X restore 289 312 graph;
#N canvas 0 22 450 278 (subpatch) 0;
#X array accel3 100 float 0;
#X coords 0 1 99 0 200 140 1 0 0;
#X restore 67 498 graph;
#N canvas 0 22 450 278 (subpatch) 0;
#X array accel4 100 float 0;
#X coords 0 1 99 0 200 140 1 0 0;
#X restore 293 496 graph;
#N canvas 0 22 450 278 (subpatch) 0;
#X array accel1 100 float 0;
#X coords 0 1 99 0 200 140 1 0 0;
#X restore 68 311 graph;
#X obj 80 29 loadbang;
#X msg 80 53 100;
#X msg 80 81 \; graphsize \$1 \; accel1 resize \$1 \; accel2 resize
\$1 \; accel3 resize \$1 \; accel4 resize \$1 \;, f 20;
#X connect 0 0 1 0;
#X connect 1 0 2 0;
#X connect 2 0 10 0;
#X connect 3 0 4 0;
#X connect 4 0 0 0;
#X connect 5 0 6 0;
#X connect 5 0 15 1;
#X connect 5 0 14 1;
#X connect 5 0 13 1;
#X connect 5 0 9 1;
#X connect 6 0 7 0;
#X connect 7 0 5 1;
#X connect 8 0 9 0;
#X connect 8 1 13 0;
#X connect 8 2 14 0;
#X connect 8 3 15 0;
#X connect 10 0 8 0;
#X connect 10 1 5 0;
#X connect 11 0 12 0;
#X connect 12 0 7 1;
#X connect 20 0 21 0;
#X connect 21 0 22 0;
#X restore 70 504 pd receiveOSC;
#X obj 13 120 declare -path mrpeach;
#X msg 401 570 connect raspberrypi.local 5000;
#X connect 1 0 0 0;
#X connect 2 0 89 0;
#X connect 4 0 1 0;
#X connect 5 0 0 0;
#X connect 6 0 4 0;
#X connect 7 0 8 0;
#X connect 8 0 38 0;
#X connect 9 0 12 0;
#X connect 10 0 11 0;
#X connect 11 0 38 0;
#X connect 12 0 38 0;
#X connect 14 0 40 2;
#X connect 15 0 40 3;
#X connect 16 0 40 4;
#X connect 17 0 40 0;
#X connect 22 0 40 1;
#X connect 25 0 24 0;
#X connect 27 0 49 0;
#X connect 28 0 49 1;
#X connect 29 0 49 2;
#X connect 30 0 51 0;
#X connect 32 0 30 0;
#X connect 33 0 30 1;
#X connect 37 0 6 0;
#X connect 37 0 87 0;
#X connect 40 0 39 0;
#X connect 44 0 49 3;
#X connect 47 0 50 0;
#X connect 49 0 47 0;
#X connect 50 0 48 0;
#X connect 51 0 50 0;
#X connect 51 0 74 0;
#X connect 51 0 75 0;
#X connect 52 0 62 0;
#X connect 53 0 62 1;
#X connect 54 0 62 2;
#X connect 58 0 62 3;
#X connect 60 0 74 0;
#X connect 62 0 60 0;
#X connect 63 0 73 0;
#X connect 64 0 73 1;
#X connect 65 0 73 2;
#X connect 69 0 73 3;
#X connect 71 0 75 0;
#X connect 73 0 71 0;
#X connect 74 0 61 0;
#X connect 75 0 72 0;
#X connect 76 0 80 0;
#X connect 76 0 81 0;
#X connect 77 0 76 0;
#X connect 78 0 81 1;
#X connect 79 0 76 0;
#X connect 81 0 76 0;
#X connect 82 0 83 0;
#X connect 83 0 78 0;
#X connect 87 0 86 0;
#X connect 88 0 87 1;
#X connect 89 0 0 0;
#X connect 92 0 0 0;
