#N canvas 0 23 1280 755 12;
#X obj 624 146 inlet;
#X obj 557 509 tabread4 beweging1;
#X obj 557 190 list store;
#X obj 557 229 list split 1;
#X obj 618 298 list;
#X obj 557 451 gate 3;
#X obj 557 628 outlet;
#X obj 576 549 tabread4 beweging2;
#X obj 596 584 tabread4 beweging3;
#X obj 596 421 r graph_index;
#X obj 618 265 r step;
#X msg 710 158 1 2 3;
#X obj 710 133 loadbang;
#X obj 781 194 inlet;
#X obj 781 218 bang;
#X connect 0 0 2 1;
#X connect 1 0 6 0;
#X connect 2 0 3 0;
#X connect 3 0 5 0;
#X connect 3 1 4 1;
#X connect 3 2 2 0;
#X connect 4 0 3 0;
#X connect 5 0 1 0;
#X connect 5 1 7 0;
#X connect 5 2 8 0;
#X connect 7 0 6 0;
#X connect 8 0 6 0;
#X connect 9 0 5 1;
#X connect 10 0 4 0;
#X connect 11 0 2 1;
#X connect 12 0 11 0;
#X connect 13 0 14 0;
#X connect 14 0 2 0;
