#N canvas 0 23 1280 755 12;
#X obj 451 320 line, f 6;
#X obj 451 236 f;
#X obj 451 261 pack f f f, f 22;
#X text 590 194 time grain;
#X text 468 168 angle;
#X text 526 193 time;
#X obj 451 440 outlet;
#X obj 302 161 inlet;
#X obj 469 190 inlet;
#X obj 365 274 inlet;
#X obj 526 219 inlet;
#X obj 602 217 inlet;
#X text 347 248 servo ID;
#X obj 451 383 list prepend \$1;
#X text 305 137 start;
#X obj 365 325 + 1;
#X obj 365 299 * 3;
#X text 297 306 1 \, 4 \, 7;
#X connect 0 0 13 0;
#X connect 1 0 2 0;
#X connect 2 0 0 0;
#X connect 7 0 1 0;
#X connect 8 0 1 1;
#X connect 9 0 16 0;
#X connect 10 0 2 1;
#X connect 11 0 2 2;
#X connect 13 0 6 0;
#X connect 15 0 13 1;
#X connect 16 0 15 0;
