#N canvas 0 23 1280 755 12;
#X obj 464 245 osc~;
#X obj 464 275 cyclone/scale~ -1 1 0 180, f 26;
#X obj 464 454 snapshot~;
#X text 758 135 trigger for snapshot from a metro;
#X obj 714 295 spigot, f 7;
#X obj 464 158 unpack f f f f, f 31;
#X obj 464 89 route servo clock, f 72;
#X obj 464 60 inlet;
#X text 212 159 freq \, min angle \, max angle \, on/off;
#X obj 714 134 bang;
#X obj 464 528 outlet;
#X obj 464 499 list prepend \$1;
#X connect 0 0 1 0;
#X connect 1 0 2 0;
#X connect 2 0 11 0;
#X connect 4 0 2 0;
#X connect 5 0 0 0;
#X connect 5 1 1 3;
#X connect 5 2 1 4;
#X connect 5 3 4 1;
#X connect 6 0 5 0;
#X connect 6 1 9 0;
#X connect 7 0 6 0;
#X connect 9 0 4 0;
#X connect 11 0 10 0;
